<svg xmlns="http://www.w3.org/2000/svg" width="48" height="48" viewBox="0 0 48 48">
  <path fill="#EA4335" d="M24 9.5c3.54 0 6.71 1.22 9.21 3.6l6.9-6.9C34.41 2.34 29.77 0 24 0 14.63 0 6.51 5.27 2.69 13l7.98 6.19C12.43 13.46 17.74 9.5 24 9.5z"/>
  <path fill="#4285F4" d="M46.5 24.49c0-1.57-.15-3.09-.38-4.56H24v8.64h12.68c-.56 2.9-2.22 5.36-4.73 7.02l7.62 5.91C44.39 37.68 46.5 31.49 46.5 24.49z"/>
  <path fill="#FBBC05" d="M10.89 28.87a14.48 14.48 0 0 1 0-9.74l-7.98-6.19a23.94 23.94 0 0 0 0 22.12l7.98-6.19z"/>
  <path fill="#34A853" d="M24 48c6.48 0 11.92-2.13 15.89-5.8l-7.62-5.91c-2.13 1.43-4.85 2.28-8.27 2.28-6.26 0-11.57-3.96-13.43-9.48l-7.98 6.19C6.51 42.73 14.63 48 24 48z"/>
  <path fill="none" d="M0 0h48v48H0z"/>
</svg>
